<svg xmlns="http://www.w3.org/2000/svg" xmlns:xlink="http://www.w3.org/1999/xlink" viewBox="0 0 1080 1080"><defs><style>.cls-1,.cls-6{fill:#ff97c9;}.cls-2{fill:#fec272;}.cls-3{isolation:isolate;}.cls-4{fill:#e1ecff;}.cls-5{clip-path:url(#clip-path);}.cls-6{opacity:0.2;}.cls-12,.cls-14,.cls-6{mix-blend-mode:multiply;}.cls-7{fill:#fff;opacity:0.79;mix-blend-mode:soft-light;}.cls-8{fill:#1c3177;}.cls-13,.cls-14,.cls-9{fill:none;stroke-linecap:round;stroke-miterlimit:10;}.cls-9{stroke:#413f4c;stroke-width:9px;}.cls-10,.cls-12{fill:#fea691;}.cls-11{clip-path:url(#clip-path-2);}.cls-12{opacity:0.36;}.cls-13,.cls-14{stroke:#ff8d76;stroke-width:13px;}.cls-14{opacity:0.48;}</style><clipPath id="clip-path"><path class="cls-1" d="M673.08,643.05c-4.44-8-4.44-15.88,3.15-27.21h0c14.22-21.94,22.38-48.19,22.38-77.66,0-88.86-74.12-160.9-165.55-160.9s-165.56,72-165.56,160.9a145.27,145.27,0,0,0,8.71,50.3h0c5.1,13.79,7.16,36.81-4.11,48.08-11.71,11.71-32,13.58-39.21,26.91-8.11,14.94,3.33,35.61,38.86,30.91,12.38-1.64,45.44-19.24,58.25-1.45,9.68,13.44,44.3,43.31,89.19,24.81C572,696,593.9,696.23,620.74,703.44c46.76,12.55,83.52-5.13,86.76-21.78C712.38,656.51,677.52,651.08,673.08,643.05Z"/></clipPath><clipPath id="clip-path-2"><rect class="cls-2" x="559.45" y="294.06" width="39.13" height="326.96" rx="13.62" transform="translate(-110.22 721.29) rotate(-59.26)"/></clipPath></defs><g class="cls-3"><g id="Layer_2" data-name="Layer 2"><path class="cls-4" d="M316.75,516.8c-54.12,40.42-36.9,74.67-62,105.16-17.55,21.31-93.39,19.6-117.61,72.25s27.29,95.71,113.77,110.7S397.33,831,443.07,867.17,606,906,681.36,843.34s196-9,234.45-93.52c28.52-62.75-66.87-89.43-74.56-137.09S765.87,487.05,667.5,520.49,399.38,455.06,316.75,516.8Z"/><path class="cls-1" d="M673.08,643.05c-4.44-8-4.44-15.88,3.15-27.21h0c14.22-21.94,22.38-48.19,22.38-77.66,0-88.86-74.12-160.9-165.55-160.9s-165.56,72-165.56,160.9a145.27,145.27,0,0,0,8.71,50.3h0c5.1,13.79,7.16,36.81-4.11,48.08-11.71,11.71-32,13.58-39.21,26.91-8.11,14.94,3.33,35.61,38.86,30.91,12.38-1.64,45.44-19.24,58.25-1.45,9.68,13.44,44.3,43.31,89.19,24.81C572,696,593.9,696.23,620.74,703.44c46.76,12.55,83.52-5.13,86.76-21.78C712.38,656.51,677.52,651.08,673.08,643.05Z"/><g class="cls-5"><path class="cls-6" d="M364.3,501.69c-7.14,34,2.14,96.34,61.41,130.5,35,20.15,12.39,62.19,57.36,72.69,28,6.53,60.74-28.49,130,7.66-73,97.27-334.32,74.33-334.32,74.33V585.15Z"/><path class="cls-6" d="M645.52,519.87s29.5,33.69,22,65.28-21.66,59,27.44,71.54c47.55-77.37,62.16-119.9,62.16-119.9S660.52,509.1,645.52,519.87Z"/></g><ellipse class="cls-7" cx="437.64" cy="468.69" rx="37.96" ry="22.54" transform="translate(-199.3 394.5) rotate(-40.32)"/><circle class="cls-8" cx="465.94" cy="549.4" r="17.12"/><path class="cls-7" d="M589.22,562.27s3.26,5.5,1.71,10.66-6.45,13-.45,19.87S607,596,608.81,588.63s-7.26-18.21-2.57-24.23C603.14,559.91,589.22,562.27,589.22,562.27Z"/><circle class="cls-8" cx="598.43" cy="549.4" r="17.12"/><path class="cls-9" d="M511.77,585.15s4.27-12.64,20.67-12.64,20.16,12.64,20.16,12.64"/><path class="cls-10" d="M461.13,364.66,716.9,516.8l47.76-325.11C768,169.1,742.27,153.81,724,167.51Z"/><rect class="cls-2" x="559.45" y="294.06" width="39.13" height="326.96" rx="13.62" transform="translate(-110.22 721.29) rotate(-59.26)"/><g class="cls-11"><polygon class="cls-7" points="505.48 452.49 581.31 415.32 425.54 326.43 394.79 377.28 505.48 452.49"/></g><path class="cls-12" d="M751.19,283.4S715.72,408.59,583.82,437.64L716.9,516.8Z"/><line class="cls-13" x1="620.74" y1="313.72" x2="638.67" y2="377.28"/><line class="cls-13" x1="645.52" y1="268.9" x2="663.46" y2="332.46"/><line class="cls-13" x1="560.68" y1="344.95" x2="569.48" y2="376.15"/><line class="cls-14" x1="673.07" y1="424.13" x2="704.26" y2="415.32"/><line class="cls-13" x1="620.74" y1="310.11" x2="682.85" y2="287.65"/><path class="cls-1" d="M350.91,720.09c-14.6-1.33-36.38,5.63-39.28,16.74s20.82,17.52,42,15.71c22.54-1.92,30.4-11,29-15.85S371.2,721.92,350.91,720.09Z"/><path class="cls-1" d="M642.16,723.62c-14.89,1.57-18.28,17.48-7.35,23.29s41.51,1.54,41-8.54S662.15,721.51,642.16,723.62Z"/></g></g></svg>